<svg width="161" height="51" viewBox="0 0 161 51" fill="none" xmlns="http://www.w3.org/2000/svg">
<path d="M107.582 8.16127L106.274 9.47165C103.426 6.55961 98.768 6.53589 95.8913 9.41877L94.5967 8.09514C96.3395 6.34879 98.6501 5.3936 101.103 5.40609C103.555 5.41858 105.856 6.39726 107.582 8.16127Z" fill="#FBBC24"/>
<path d="M109.594 5.40866L108.353 6.45209C106.424 4.79472 103.852 3.87431 101.111 3.86035C98.3702 3.84639 95.7889 4.74055 93.8425 6.37819L92.6131 5.32218C93.7639 4.3539 95.1042 3.60635 96.5967 3.1003C98.0378 2.61179 99.5591 2.36808 101.118 2.37602C102.677 2.38396 104.196 2.64315 105.632 3.14631C107.12 3.66754 108.453 4.42871 109.594 5.40866Z" fill="#FBBC24"/>
<path d="M8.81627 22.9723C6.18307 20.3135 4.73242 16.7782 4.73242 13.0177C4.73242 9.25707 6.18307 5.72175 8.81627 3.06297L10.7921 5.05798C6.44519 9.44664 6.44519 16.5882 10.7921 20.9773L8.81627 22.9723Z" fill="#FBBC24"/>
<path d="M5.79354 26.0353C3.96679 24.2783 2.55213 22.2291 1.5889 19.9446C0.659055 17.7384 0.1875 15.4082 0.1875 13.0177C0.1875 10.6271 0.659055 8.29644 1.5889 6.09069C2.55213 3.80618 3.96679 1.75704 5.79354 1.90735e-06L7.76208 1.89298C1.38445 8.02722 1.38445 18.0081 7.76208 24.1419L5.79354 26.0353Z" fill="#FBBC24"/>
<path d="M40.3902 26.5308C40.3902 34.1664 34.2571 40.3779 26.7179 40.3779C19.1793 40.3779 13.0457 34.1664 13.0457 26.5308H9.96191C9.96191 28.8211 10.4053 31.0437 11.2793 33.1369C12.1235 35.1578 13.3315 36.9729 14.8698 38.5309C16.4081 40.089 18.1998 41.3124 20.1952 42.1668C21.4954 42.7236 22.8458 43.1075 24.2311 43.3163L26.7114 50.2689L29.1901 43.3184C30.581 43.11 31.9364 42.7257 33.2407 42.1668C35.2361 41.3124 37.0283 40.089 38.5666 38.5309C40.1049 36.9729 41.3129 35.1578 42.1571 33.1369C43.0311 31.0437 43.4745 28.8211 43.4745 26.5308H40.3902Z" fill="#F58800"/>
<path d="M26.6983 35.5777C21.9618 35.5777 18.1081 31.8105 18.1081 27.1802V24.9274H22.1726V22.2178H18.1081V19.9543H22.1726V17.2452H18.1081V14.9817H22.1726V12.2722H18.1168C18.3135 7.81103 22.087 4.24059 26.6983 4.24059C31.3096 4.24059 35.0831 7.81103 35.2803 12.2722H31.2258V14.9817H35.2889V17.2452H31.2258V19.9543H35.2889V22.2178H31.2258V24.9274H35.2889V27.1802C35.2889 31.8105 31.4353 35.5777 26.6983 35.5777ZM34.7325 4.78454C32.5864 2.68662 29.7332 1.53151 26.6983 1.53151C23.6634 1.53151 20.8102 2.68662 18.6641 4.78454C16.5185 6.88247 15.3364 9.6717 15.3364 12.6385V27.1802C15.3364 30.147 16.5185 32.9362 18.6641 35.0337C20.8102 37.1316 23.6634 38.2872 26.6983 38.2872C29.7332 38.2872 32.5864 37.1316 34.7325 35.0337C36.8785 32.9362 38.0602 30.147 38.0602 27.1802V12.6385C38.0602 9.6717 36.8785 6.88247 34.7325 4.78454Z" fill="#F58800"/>
<path d="M160.769 22.2956C160.769 22.4144 160.721 22.5212 160.624 22.6162C160.552 22.6874 160.456 22.723 160.336 22.723H158.104C157.983 22.723 157.923 22.7824 157.923 22.9011V32.2325C157.923 33.0635 158.08 33.6453 158.392 33.9777C158.704 34.2864 159.172 34.4288 159.796 34.4051H160.048C160.168 34.4051 160.264 34.4526 160.336 34.5475C160.432 34.6188 160.48 34.7138 160.48 34.8325V37.5749C160.48 37.6936 160.432 37.8005 160.336 37.8955C160.264 37.9667 160.168 38.0023 160.048 38.0023H158.824C157.191 38.0023 155.955 37.7055 155.114 37.1119C154.298 36.5183 153.89 35.4023 153.89 33.764V22.9011C153.89 22.7824 153.83 22.723 153.71 22.723H152.449C152.329 22.723 152.221 22.6874 152.125 22.6162C152.053 22.5212 152.017 22.4144 152.017 22.2956V20.2299C152.017 20.1112 152.053 20.0162 152.125 19.945C152.221 19.85 152.329 19.8025 152.449 19.8025H153.71C153.83 19.8025 153.89 19.7432 153.89 19.6244V15.7067C153.89 15.588 153.926 15.493 153.998 15.4217C154.094 15.3268 154.202 15.2793 154.322 15.2793H157.491C157.611 15.2793 157.707 15.3268 157.779 15.4217C157.875 15.493 157.923 15.588 157.923 15.7067V19.6244C157.923 19.7432 157.983 19.8025 158.104 19.8025H160.336C160.456 19.8025 160.552 19.85 160.624 19.945C160.721 20.0162 160.769 20.1112 160.769 20.2299V22.2956Z" fill="#FBBC24"/>
<path d="M144.367 38.216C142.47 38.216 140.957 37.7649 139.829 36.8626C138.7 35.9603 138.136 34.7375 138.136 33.1941V32.9448C138.136 32.8261 138.172 32.7311 138.244 32.6599C138.34 32.5649 138.448 32.5174 138.568 32.5174H141.666C141.786 32.5174 141.882 32.5649 141.954 32.6599C142.05 32.7311 142.098 32.8261 142.098 32.9448V33.1229C142.098 33.6928 142.314 34.1676 142.746 34.5475C143.202 34.9274 143.754 35.1174 144.403 35.1174C145.027 35.1174 145.519 34.9393 145.879 34.5832C146.239 34.227 146.419 33.7759 146.419 33.2298C146.419 32.7549 146.263 32.3631 145.951 32.0544C145.639 31.722 145.303 31.4727 144.943 31.3065C144.583 31.1403 143.934 30.8672 142.998 30.4873C141.63 29.965 140.501 29.3001 139.613 28.4928C138.748 27.6855 138.316 26.4865 138.316 24.8956C138.316 23.2335 138.844 21.9395 139.901 21.0135C140.981 20.0637 142.434 19.5888 144.259 19.5888C146.131 19.5888 147.608 20.0874 148.688 21.0847C149.793 22.0582 150.345 23.376 150.345 25.0381C150.345 25.1568 150.297 25.2636 150.201 25.3586C150.129 25.4298 150.033 25.4655 149.913 25.4655H146.888C146.767 25.4655 146.659 25.4298 146.563 25.3586C146.491 25.2636 146.455 25.1568 146.455 25.0381V24.8244C146.455 24.2545 146.251 23.7796 145.843 23.3997C145.459 23.0198 144.967 22.8299 144.367 22.8299C143.742 22.8299 143.238 23.0317 142.854 23.4354C142.494 23.8153 142.314 24.2783 142.314 24.8244C142.314 25.2755 142.458 25.6554 142.746 25.9641C143.034 26.2728 143.358 26.5221 143.718 26.712C144.078 26.8782 144.679 27.1394 145.519 27.4956C146.527 27.8992 147.368 28.3029 148.04 28.7065C148.736 29.0864 149.336 29.6444 149.841 30.3805C150.369 31.0928 150.633 31.9832 150.633 33.0517C150.633 34.6425 150.069 35.901 148.94 36.827C147.812 37.753 146.287 38.216 144.367 38.216Z" fill="#FBBC24"/>
<path d="M129.364 19.5176C131.26 19.5176 132.797 20.0637 133.973 21.1559C135.15 22.2481 135.738 23.6847 135.738 25.4655V37.5749C135.738 37.6936 135.69 37.8005 135.594 37.8955C135.522 37.9667 135.426 38.0023 135.306 38.0023H131.993C131.872 38.0023 131.764 37.9667 131.668 37.8955C131.596 37.8005 131.56 37.6936 131.56 37.5749V36.8982C131.56 36.827 131.536 36.7795 131.488 36.7557C131.44 36.732 131.392 36.7557 131.344 36.827C130.504 37.8005 129.279 38.2872 127.671 38.2872C126.302 38.2872 125.09 37.9073 124.033 37.1475C123.001 36.364 122.485 34.9512 122.485 32.9092C122.485 30.7722 123.109 29.2526 124.358 28.3504C125.63 27.4481 127.347 26.997 129.508 26.997H131.38C131.5 26.997 131.56 26.9376 131.56 26.8189V25.8929C131.56 25.0381 131.344 24.3614 130.912 23.8627C130.48 23.3404 129.94 23.0792 129.291 23.0792C128.787 23.0792 128.367 23.2454 128.031 23.5778C127.695 23.8865 127.491 24.3139 127.419 24.86C127.395 25.1449 127.239 25.2874 126.951 25.2874H123.457C123.169 25.2874 123.037 25.1449 123.061 24.86C123.181 23.2454 123.817 21.9514 124.97 20.9778C126.146 20.0043 127.611 19.5176 129.364 19.5176ZM128.823 34.8681C129.544 34.8681 130.18 34.6425 130.732 34.1914C131.284 33.7402 131.56 33.111 131.56 32.3037V30.2736C131.56 30.1549 131.5 30.0955 131.38 30.0955H129.508C128.691 30.0955 128.031 30.3211 127.527 30.7722C127.023 31.1996 126.771 31.8289 126.771 32.6599C126.771 33.396 126.963 33.9539 127.347 34.3338C127.731 34.69 128.223 34.8681 128.823 34.8681Z" fill="#FBBC24"/>
<path d="M113.264 38.2872C111.224 38.2872 109.579 37.6818 108.33 36.4708C107.106 35.2361 106.494 33.6097 106.494 31.5914V19.4464C106.494 17.4044 107.106 15.7898 108.33 14.6026C109.579 13.3916 111.224 12.7862 113.264 12.7862C115.329 12.7862 116.986 13.3916 118.234 14.6026C119.483 15.7898 120.107 17.4044 120.107 19.4464V19.8737C120.107 19.9925 120.059 20.0993 119.963 20.1943C119.891 20.2893 119.795 20.3368 119.675 20.3368L116.325 20.4792C116.037 20.4792 115.893 20.3368 115.893 20.0518V19.1614C115.893 18.3304 115.653 17.6537 115.173 17.1313C114.693 16.6089 114.057 16.3478 113.264 16.3478C112.496 16.3478 111.872 16.6089 111.392 17.1313C110.911 17.6537 110.671 18.3304 110.671 19.1614V31.912C110.671 32.743 110.911 33.4197 111.392 33.9421C111.872 34.4644 112.496 34.7256 113.264 34.7256C114.057 34.7256 114.693 34.4644 115.173 33.9421C115.653 33.4197 115.893 32.743 115.893 31.912V31.0216C115.893 30.9028 115.929 30.8079 116.001 30.7366C116.097 30.6417 116.205 30.5942 116.325 30.5942L119.675 30.7366C119.795 30.7366 119.891 30.7841 119.963 30.8791C120.059 30.9503 120.107 31.0453 120.107 31.164V31.5914C120.107 33.6097 119.483 35.2361 118.234 36.4708C116.986 37.6818 115.329 38.2872 113.264 38.2872Z" fill="#FBBC24"/>
<path d="M101.097 17.3094C100.353 17.3094 99.7408 17.072 99.2606 16.5971C98.7804 16.1222 98.5403 15.5167 98.5403 14.7807C98.5403 14.0446 98.7804 13.4391 99.2606 12.9642C99.7408 12.4894 100.353 12.2519 101.097 12.2519C101.842 12.2519 102.442 12.4894 102.898 12.9642C103.378 13.4391 103.618 14.0446 103.618 14.7807C103.618 15.5167 103.378 16.1222 102.898 16.5971C102.418 17.072 101.818 17.3094 101.097 17.3094ZM99.4767 38.0023C99.3566 38.0023 99.2486 37.9667 99.1526 37.8955C99.0805 37.8005 99.0445 37.6936 99.0445 37.5749V20.2299C99.0445 20.1112 99.0805 20.0162 99.1526 19.945C99.2486 19.85 99.3566 19.8025 99.4767 19.8025H102.79C102.91 19.8025 103.006 19.85 103.078 19.945C103.174 20.0162 103.222 20.1112 103.222 20.2299V37.5749C103.222 37.6936 103.174 37.8005 103.078 37.8955C103.006 37.9667 102.91 38.0023 102.79 38.0023H99.4767Z" fill="#051821"/>
<path d="M91.4268 13.4985C91.4268 13.3798 91.4628 13.2848 91.5348 13.2136C91.6309 13.1186 91.7389 13.0711 91.859 13.0711H95.1722C95.2923 13.0711 95.3883 13.1186 95.4603 13.2136C95.5564 13.2848 95.6044 13.3798 95.6044 13.4985V37.5749C95.6044 37.6936 95.5564 37.8005 95.4603 37.8955C95.3883 37.9667 95.2923 38.0023 95.1722 38.0023H91.859C91.7389 38.0023 91.6309 37.9667 91.5348 37.8955C91.4628 37.8005 91.4268 37.6936 91.4268 37.5749V37.1475C91.4268 37.0763 91.4028 37.0288 91.3548 37.0051C91.3067 36.9813 91.2587 36.9932 91.2107 37.0407C90.3464 37.8717 89.266 38.2872 87.9695 38.2872C86.3609 38.2872 85.1124 37.7649 84.2241 36.7201C83.3357 35.6754 82.8916 34.2745 82.8916 32.5174V25.2874C82.8916 23.4828 83.3357 22.0701 84.2241 21.0491C85.1364 20.0281 86.3849 19.5176 87.9695 19.5176C88.5217 19.5176 89.0859 19.6244 89.6621 19.8381C90.2383 20.0281 90.7545 20.3486 91.2107 20.7998C91.2587 20.8473 91.3067 20.8591 91.3548 20.8354C91.4028 20.8116 91.4268 20.7641 91.4268 20.6929V13.4985ZM89.266 34.7256C89.8422 34.7256 90.3224 34.5475 90.7065 34.1914C91.0907 33.8115 91.3308 33.3129 91.4268 32.6955V25.1093C91.3308 24.492 91.0907 24.0052 90.7065 23.649C90.3224 23.2691 89.8422 23.0792 89.266 23.0792C88.5937 23.0792 88.0535 23.3166 87.6454 23.7915C87.2372 24.2426 87.0331 24.8481 87.0331 25.6079V32.1969C87.0331 32.9567 87.2372 33.574 87.6454 34.0489C88.0535 34.5001 88.5937 34.7256 89.266 34.7256Z" fill="#051821"/>
<path d="M75.7077 20.2299C75.7077 20.1112 75.7437 20.0162 75.8157 19.945C75.9118 19.85 76.0198 19.8025 76.1398 19.8025H79.4531C79.5731 19.8025 79.6692 19.85 79.7412 19.945C79.8372 20.0162 79.8853 20.1112 79.8853 20.2299V37.5749C79.8853 37.6936 79.8372 37.8005 79.7412 37.8954C79.6692 37.9667 79.5731 38.0023 79.4531 38.0023H76.1398C76.0198 38.0023 75.9118 37.9667 75.8157 37.8954C75.7437 37.8005 75.7077 37.6936 75.7077 37.5749V36.7914C75.7077 36.7201 75.6837 36.6726 75.6356 36.6489C75.5876 36.6251 75.5396 36.6489 75.4916 36.7201C74.7953 37.7411 73.6789 38.2516 72.1423 38.2516C70.6778 38.2516 69.4893 37.8242 68.577 36.9694C67.6886 36.0909 67.2445 34.7494 67.2445 32.9448V20.2299C67.2445 20.1112 67.2805 20.0162 67.3525 19.945C67.4485 19.85 67.5566 19.8025 67.6766 19.8025H70.9899C71.1099 19.8025 71.206 19.85 71.278 19.945C71.374 20.0162 71.422 20.1112 71.422 20.2299V32.0544C71.422 33.8352 72.1183 34.7256 73.5108 34.7256C74.2071 34.7256 74.7473 34.4763 75.1315 33.9777C75.5156 33.4553 75.7077 32.7549 75.7077 31.8763V20.2299Z" fill="#051821"/>
<path d="M61.8672 38.0023C61.5791 38.0023 61.423 37.8717 61.399 37.6105L60.7147 33.8708C60.7147 33.7521 60.6427 33.6928 60.4987 33.6928H55.2407C55.0966 33.6928 55.0246 33.7521 55.0246 33.8708L54.3403 37.6105C54.3163 37.8717 54.1603 38.0023 53.8721 38.0023H50.5949C50.2588 38.0023 50.1267 37.848 50.1988 37.5393L55.5288 13.4629C55.5768 13.2017 55.7329 13.0711 55.997 13.0711H59.8144C60.0785 13.0711 60.2346 13.2017 60.2826 13.4629L65.6126 37.5393V37.6818C65.6126 37.8955 65.4805 38.0023 65.2164 38.0023H61.8672ZM55.6728 30.2736C55.6488 30.3923 55.7088 30.4517 55.8529 30.4517H59.8504C59.9945 30.4517 60.0545 30.3923 60.0305 30.2736L57.9417 19.019C57.9177 18.9477 57.8817 18.9121 57.8336 18.9121C57.7856 18.9121 57.7496 18.9477 57.7256 19.019L55.6728 30.2736Z" fill="#051821"/>
</svg>
